<svg width="160" height="160" viewBox="0 0 160 160" fill="none" xmlns="http://www.w3.org/2000/svg">
  <defs>
    <linearGradient id="outer" x1="20" y1="20" x2="140" y2="140" gradientUnits="userSpaceOnUse">
      <stop stop-color="#B72E1F"/>
      <stop offset="1" stop-color="#6B1B7C"/>
    </linearGradient>
    <linearGradient id="inner" x1="55" y1="38" x2="108" y2="110" gradientUnits="userSpaceOnUse">
      <stop stop-color="#7A1B67"/>
      <stop offset="1" stop-color="#B22A24"/>
    </linearGradient>
  </defs>
  <path d="M76 17C46.7 18.7 21.7 44.8 18 74.5C13.8 108.7 37.2 140.5 69.9 146.6C42.8 138.2 23.8 112.4 27.2 83.2C30.7 52.5 54.8 27.8 84.9 23.8C91 23 96.9 23.1 102.5 23.8C94.1 18.8 85.1 16.5 76 17Z" fill="url(#outer)"/>
  <path d="M94.5 20.3C119.9 28.4 138.8 52.2 139.9 80.7C141.3 114.9 117.6 144.4 84.3 149.8C109.3 138.5 125.2 112.2 121.2 83.6C117.1 54.1 93.2 31.1 63.8 27.8C74.1 21.2 84.4 17.2 94.5 20.3Z" fill="url(#inner)"/>
  <circle cx="82" cy="57" r="9.5" fill="#A52D27"/>
  <path d="M75.8 67.5C67.6 71.4 63.4 79.4 62.4 87.2C61 98.1 67.2 107.7 77.2 110.7C70.8 99.8 73.9 84.8 84.4 76.8C90.8 71.9 98.9 69.8 106.4 70.7C98.1 65.2 86.1 62.6 75.8 67.5Z" fill="#A52D27"/>
  <path d="M84.8 77.2C92.4 83.8 100.1 92.2 111.8 95.7C122.3 98.8 131.6 96.4 137.5 90.5C127.4 91.3 120 88.8 113.4 84.4C106.8 80.1 101.2 74.1 94.1 68.5C90 65.3 84.4 65.3 81.7 68.4C79.8 70.6 80.4 73.4 84.8 77.2Z" fill="#C13A2B"/>
  <path d="M67.2 54.7C71 52.8 75.5 53.5 78.5 55.8C80 50.2 76.1 44.3 69.8 43.7C64.4 43.2 60.3 47.2 59.9 52.2C62.6 52 64.9 53.1 67.2 54.7Z" fill="#6B1B7C"/>
  <ellipse cx="57.2" cy="48.8" rx="6.1" ry="10.5" transform="rotate(-35 57.2 48.8)" fill="#6B1B7C"/>
  <ellipse cx="67.4" cy="45.3" rx="5.2" ry="9" transform="rotate(28 67.4 45.3)" fill="#7F216E"/>
</svg>
